<svg xmlns="http://www.w3.org/2000/svg" xmlns:xlink="http://www.w3.org/1999/xlink" width="1024" zoomAndPan="magnify" viewBox="0 0 768 767.999994" height="1024" preserveAspectRatio="xMidYMid meet" version="1.0"><defs><g/><clipPath id="170388b1a5"><rect x="0" width="701" y="0" height="667"/></clipPath></defs><rect x="-76.8" width="921.6" fill="#ffffff" y="-76.799999" height="921.599993" fill-opacity="1"/><g transform="matrix(1, 0, 0, 1, 30, 45)"><g clip-path="url(#170388b1a5)"><g fill="#1f354d" fill-opacity="1"><g transform="translate(1.274417, 515.430043)"><g><path d="M 169.421875 -263.34375 C 160.117188 -262.488281 150.175781 -258.046875 139.59375 -250.015625 C 123.101562 -237.742188 112.109375 -223.992188 106.609375 -208.765625 C 98.140625 -185.078125 97.925781 -159.0625 105.96875 -130.71875 C 114.851562 -100.675781 129.867188 -81.425781 151.015625 -72.96875 C 172.597656 -64.507812 191.847656 -66.414062 208.765625 -78.6875 C 223.992188 -90.53125 234.992188 -108.71875 241.765625 -133.25 C 248.535156 -156.519531 249.171875 -179.894531 243.671875 -203.375 C 238.171875 -226.851562 227.378906 -242.820312 211.296875 -251.28125 C 206.648438 -254.238281 199.25 -256.773438 189.09375 -258.890625 Z M 191.640625 -274.125 L 192.265625 -274.125 C 203.265625 -271.582031 212.148438 -268.617188 218.921875 -265.234375 C 232.453125 -257.617188 243.023438 -245.984375 250.640625 -230.328125 C 258.253906 -214.679688 262.0625 -198.289062 262.0625 -181.15625 C 262.0625 -164.03125 260.160156 -146.582031 256.359375 -128.8125 C 248.742188 -100.894531 235.84375 -80.164062 217.65625 -66.625 C 196.5 -50.550781 172.597656 -48.015625 145.953125 -59.015625 C 119.722656 -69.160156 101.53125 -91.582031 91.375 -126.28125 C 82.488281 -158 82.910156 -187.1875 92.640625 -213.84375 C 98.984375 -232.03125 111.675781 -248.101562 130.71875 -262.0625 C 140.019531 -269.257812 149.328125 -274.125 158.640625 -276.65625 C 160.753906 -279.625 163.710938 -280.472656 167.515625 -279.203125 C 168.367188 -279.203125 169.425781 -278.988281 170.6875 -278.5625 C 177.457031 -278.988281 184.015625 -277.722656 190.359375 -274.765625 C 190.785156 -274.335938 191.210938 -274.125 191.640625 -274.125 Z M 172.59375 -330.59375 C 151.445312 -328.90625 129.34375 -321.710938 106.28125 -309.015625 C 83.226562 -296.328125 66.414062 -281.945312 55.84375 -265.875 C 44.84375 -248.53125 37.648438 -217.859375 34.265625 -173.859375 C 27.492188 -90.097656 51.816406 -38.914062 107.234375 -20.3125 C 111.046875 -19.039062 116.335938 -16.921875 123.109375 -13.953125 C 130.296875 -11.421875 136.320312 -9.519531 141.1875 -8.25 C 146.050781 -6.976562 151.234375 -6.128906 156.734375 -5.703125 C 191.847656 -3.585938 218.078125 -6.335938 235.421875 -13.953125 C 274.335938 -31.296875 300.351562 -67.679688 313.46875 -123.109375 C 326.15625 -176.828125 320.234375 -222.085938 295.703125 -258.890625 C 271.160156 -296.117188 231.601562 -319.175781 177.03125 -328.0625 C 175.34375 -328.476562 173.863281 -329.320312 172.59375 -330.59375 Z M 187.1875 -342.015625 C 243.457031 -331.015625 284.382812 -305.316406 309.96875 -264.921875 C 335.5625 -224.523438 341.800781 -175.984375 328.6875 -119.296875 C 314.3125 -59.222656 285.335938 -19.457031 241.765625 0 C 221.878906 8.457031 193.113281 11.628906 155.46875 9.515625 C 149.539062 9.097656 143.613281 8.039062 137.6875 6.34375 C 131.769531 4.65625 125.003906 2.332031 117.390625 -0.625 C 109.773438 -3.59375 104.695312 -5.5 102.15625 -6.34375 C 39.550781 -27.070312 11.84375 -83.335938 19.03125 -175.140625 C 22.84375 -221.671875 30.882812 -254.453125 43.15625 -273.484375 C 55.84375 -293.367188 75.722656 -310.503906 102.796875 -324.890625 C 130.296875 -338.847656 156.101562 -345.828125 180.21875 -345.828125 C 183.175781 -345.828125 185.5 -344.554688 187.1875 -342.015625 Z M 187.1875 -342.015625 "/></g></g></g><g fill="#cb6ce6" fill-opacity="1"><g transform="translate(349.019659, 515.430043)"><g><path d="M 169.421875 -263.34375 C 160.117188 -262.488281 150.175781 -258.046875 139.59375 -250.015625 C 123.101562 -237.742188 112.109375 -223.992188 106.609375 -208.765625 C 98.140625 -185.078125 97.925781 -159.0625 105.96875 -130.71875 C 114.851562 -100.675781 129.867188 -81.425781 151.015625 -72.96875 C 172.597656 -64.507812 191.847656 -66.414062 208.765625 -78.6875 C 223.992188 -90.53125 234.992188 -108.71875 241.765625 -133.25 C 248.535156 -156.519531 249.171875 -179.894531 243.671875 -203.375 C 238.171875 -226.851562 227.378906 -242.820312 211.296875 -251.28125 C 206.648438 -254.238281 199.25 -256.773438 189.09375 -258.890625 Z M 191.640625 -274.125 L 192.265625 -274.125 C 203.265625 -271.582031 212.148438 -268.617188 218.921875 -265.234375 C 232.453125 -257.617188 243.023438 -245.984375 250.640625 -230.328125 C 258.253906 -214.679688 262.0625 -198.289062 262.0625 -181.15625 C 262.0625 -164.03125 260.160156 -146.582031 256.359375 -128.8125 C 248.742188 -100.894531 235.84375 -80.164062 217.65625 -66.625 C 196.5 -50.550781 172.597656 -48.015625 145.953125 -59.015625 C 119.722656 -69.160156 101.53125 -91.582031 91.375 -126.28125 C 82.488281 -158 82.910156 -187.1875 92.640625 -213.84375 C 98.984375 -232.03125 111.675781 -248.101562 130.71875 -262.0625 C 140.019531 -269.257812 149.328125 -274.125 158.640625 -276.65625 C 160.753906 -279.625 163.710938 -280.472656 167.515625 -279.203125 C 168.367188 -279.203125 169.425781 -278.988281 170.6875 -278.5625 C 177.457031 -278.988281 184.015625 -277.722656 190.359375 -274.765625 C 190.785156 -274.335938 191.210938 -274.125 191.640625 -274.125 Z M 172.59375 -330.59375 C 151.445312 -328.90625 129.34375 -321.710938 106.28125 -309.015625 C 83.226562 -296.328125 66.414062 -281.945312 55.84375 -265.875 C 44.84375 -248.53125 37.648438 -217.859375 34.265625 -173.859375 C 27.492188 -90.097656 51.816406 -38.914062 107.234375 -20.3125 C 111.046875 -19.039062 116.335938 -16.921875 123.109375 -13.953125 C 130.296875 -11.421875 136.320312 -9.519531 141.1875 -8.25 C 146.050781 -6.976562 151.234375 -6.128906 156.734375 -5.703125 C 191.847656 -3.585938 218.078125 -6.335938 235.421875 -13.953125 C 274.335938 -31.296875 300.351562 -67.679688 313.46875 -123.109375 C 326.15625 -176.828125 320.234375 -222.085938 295.703125 -258.890625 C 271.160156 -296.117188 231.601562 -319.175781 177.03125 -328.0625 C 175.34375 -328.476562 173.863281 -329.320312 172.59375 -330.59375 Z M 187.1875 -342.015625 C 243.457031 -331.015625 284.382812 -305.316406 309.96875 -264.921875 C 335.5625 -224.523438 341.800781 -175.984375 328.6875 -119.296875 C 314.3125 -59.222656 285.335938 -19.457031 241.765625 0 C 221.878906 8.457031 193.113281 11.628906 155.46875 9.515625 C 149.539062 9.097656 143.613281 8.039062 137.6875 6.34375 C 131.769531 4.65625 125.003906 2.332031 117.390625 -0.625 C 109.773438 -3.59375 104.695312 -5.5 102.15625 -6.34375 C 39.550781 -27.070312 11.84375 -83.335938 19.03125 -175.140625 C 22.84375 -221.671875 30.882812 -254.453125 43.15625 -273.484375 C 55.84375 -293.367188 75.722656 -310.503906 102.796875 -324.890625 C 130.296875 -338.847656 156.101562 -345.828125 180.21875 -345.828125 C 183.175781 -345.828125 185.5 -344.554688 187.1875 -342.015625 Z M 187.1875 -342.015625 "/></g></g></g></g></g></svg>