<svg xmlns="http://www.w3.org/2000/svg" xmlns:xlink="http://www.w3.org/1999/xlink" width="1000" zoomAndPan="magnify" viewBox="0 0 750 262.499992" height="350" preserveAspectRatio="xMidYMid meet" version="1.0"><defs><g/></defs><g fill="#1f354d" fill-opacity="1"><g transform="translate(20.317289, 176.153107)"><g><path d="M 25.8125 -66.890625 L 25.96875 -79.125 C 22.914062 -77.425781 20.425781 -75.695312 18.5 -73.9375 C 16.582031 -72.1875 14.882812 -69.835938 13.40625 -66.890625 C 13.070312 -66.328125 12.566406 -65.988281 11.890625 -65.875 L 11.890625 -54.671875 C 15.390625 -59.535156 20.03125 -63.609375 25.8125 -66.890625 Z M 29.375 -17.484375 L 29.203125 -6.453125 L 29.546875 -6.28125 C 44.035156 1.75 56.820312 1.75 67.90625 -6.28125 C 72.78125 -9.789062 76.882812 -14.6875 80.21875 -20.96875 C 83.5625 -27.25 85.851562 -34.296875 87.09375 -42.109375 C 87.769531 -46.066406 86.8125 -52.066406 84.21875 -60.109375 C 80.25 -72.210938 73.367188 -80.441406 63.578125 -84.796875 C 53.785156 -89.160156 43.234375 -88.34375 31.921875 -82.34375 L 30.046875 -81.328125 L 29.875 -68.9375 C 33.957031 -70.851562 38.09375 -72.097656 42.28125 -72.671875 C 49.863281 -73.796875 56.253906 -72.550781 61.453125 -68.9375 C 67.347656 -64.851562 70.691406 -58.34375 71.484375 -49.40625 C 72.273438 -40.914062 70.859375 -33.726562 67.234375 -27.84375 C 63.609375 -21.84375 58.628906 -17.769531 52.296875 -15.625 C 44.710938 -13.132812 37.070312 -13.753906 29.375 -17.484375 Z M 11.890625 -33.109375 L 11.71875 -21.046875 L 11.890625 -21.046875 C 13.921875 -17.203125 18.332031 -13.128906 25.125 -8.828125 L 25.296875 -19.859375 C 21.554688 -22.242188 18.273438 -25.359375 15.453125 -29.203125 C 15.222656 -29.429688 14.035156 -30.734375 11.890625 -33.109375 Z M 29.875 -64.515625 L 29.375 -22.078125 C 36.613281 -17.992188 43.859375 -17.144531 51.109375 -19.53125 C 56.421875 -21.332031 60.632812 -24.78125 63.75 -29.875 C 66.863281 -34.96875 68.082031 -41.363281 67.40625 -49.0625 C 66.726562 -56.757812 63.953125 -62.304688 59.078125 -65.703125 C 54.773438 -68.648438 49.34375 -69.671875 42.78125 -68.765625 C 38.476562 -68.085938 34.175781 -66.671875 29.875 -64.515625 Z M 11.890625 -46.515625 L 11.890625 -40.234375 C 12.453125 -38.878906 13.410156 -37.46875 14.765625 -36 C 17.148438 -33.28125 18.394531 -31.804688 18.5 -31.578125 C 20.65625 -28.972656 22.921875 -26.707031 25.296875 -24.78125 L 25.8125 -62.140625 C 19.238281 -57.835938 14.648438 -52.742188 12.046875 -46.859375 C 11.941406 -46.742188 11.890625 -46.628906 11.890625 -46.515625 Z M 26.3125 -122.078125 L 30.390625 -122.078125 L 30.046875 -86.078125 C 38.648438 -90.378906 46.769531 -92.160156 54.40625 -91.421875 C 62.050781 -90.691406 68.875 -87.664062 74.875 -82.34375 C 80.875 -77.019531 85.234375 -70.054688 87.953125 -61.453125 C 90.773438 -52.628906 91.847656 -45.953125 91.171875 -41.421875 C 89.816406 -33.273438 87.351562 -25.804688 83.78125 -19.015625 C 80.21875 -12.222656 75.722656 -6.847656 70.296875 -2.890625 C 58.296875 5.828125 44.597656 6.164062 29.203125 -1.875 L 29.203125 -0.84375 L 25.125 -0.84375 L 25.125 -4.25 C 19.351562 -7.644531 14.882812 -10.984375 11.71875 -14.265625 L 11.71875 0.671875 L 7.640625 0.671875 L 7.984375 -117.828125 L 12.046875 -117.828125 L 11.890625 -72.5 C 14.710938 -76.570312 19.40625 -80.363281 25.96875 -83.875 Z M 26.3125 -122.078125 "/></g></g></g><g fill="#1f354d" fill-opacity="1"><g transform="translate(115.220312, 176.153107)"><g><path d="M 30.046875 -60.265625 L 30.046875 -77.921875 C 23.484375 -72.835938 18.050781 -65.992188 13.75 -57.390625 C 13.632812 -57.160156 13.519531 -56.988281 13.40625 -56.875 L 13.40625 -33.953125 C 14.882812 -36.785156 16.976562 -40.125 19.6875 -43.96875 C 20.375 -44.875 21.875 -47.25 24.1875 -51.09375 C 26.507812 -54.945312 28.460938 -58.003906 30.046875 -60.265625 Z M 58.578125 -66.046875 C 54.953125 -69.554688 51.441406 -70.972656 48.046875 -70.296875 C 44.992188 -69.835938 41.769531 -67.796875 38.375 -64.171875 C 37.007812 -62.703125 35.59375 -60.953125 34.125 -58.921875 L 34.296875 0 L 30.21875 0 L 30.046875 -52.96875 C 29.710938 -52.289062 28.664062 -50.507812 26.90625 -47.625 C 25.15625 -44.738281 23.882812 -42.726562 23.09375 -41.59375 C 18 -34.351562 14.941406 -28.46875 13.921875 -23.9375 C 13.804688 -23.601562 13.632812 -23.320312 13.40625 -23.09375 L 13.40625 -1.1875 L 9.34375 -1.1875 L 9.34375 -86.765625 L 13.40625 -86.765625 L 13.40625 -65.203125 C 18.050781 -72.671875 23.597656 -78.609375 30.046875 -83.015625 L 30.046875 -87.4375 L 34.125 -87.4375 L 34.125 -85.40625 C 45.894531 -91.851562 57.835938 -92.078125 69.953125 -86.078125 C 71.191406 -85.398438 71.5 -84.46875 70.875 -83.28125 C 70.257812 -82.09375 69.382812 -81.78125 68.25 -82.34375 C 56.59375 -88.113281 45.21875 -87.601562 34.125 -80.8125 L 34.125 -65.53125 L 35.484375 -66.890625 C 39.441406 -71.191406 43.347656 -73.679688 47.203125 -74.359375 C 52.066406 -75.265625 56.765625 -73.398438 61.296875 -68.765625 C 62.304688 -67.859375 62.332031 -66.921875 61.375 -65.953125 C 60.414062 -64.992188 59.484375 -65.023438 58.578125 -66.046875 Z M 58.578125 -66.046875 "/></g></g></g><g fill="#1f354d" fill-opacity="1"><g transform="translate(189.920196, 176.153107)"><g><path d="M 22.078125 -120.375 L 22.75 -121.046875 C 26.9375 -123.316406 30.785156 -123.660156 34.296875 -122.078125 C 37.460938 -120.597656 39.613281 -117.992188 40.75 -114.265625 C 41.875 -110.640625 41.644531 -106.960938 40.0625 -103.234375 C 38.363281 -99.378906 35.363281 -96.488281 31.0625 -94.5625 C 26.988281 -92.757812 23.367188 -92.929688 20.203125 -95.078125 C 17.484375 -97.003906 15.785156 -99.945312 15.109375 -103.90625 C 14.546875 -107.070312 14.859375 -110.210938 16.046875 -113.328125 C 17.234375 -116.441406 19.242188 -118.789062 22.078125 -120.375 Z M 32.421875 -71.640625 L 32.265625 -83.53125 L 17.828125 -83.703125 L 17.828125 -71.640625 Z M 27.171875 -118 C 23.992188 -117.207031 21.726562 -115.535156 20.375 -112.984375 C 19.019531 -110.441406 18.566406 -107.640625 19.015625 -104.578125 C 19.578125 -101.753906 20.765625 -99.71875 22.578125 -98.46875 C 24.503906 -97.113281 26.769531 -97.054688 29.375 -98.296875 C 32.65625 -99.773438 34.914062 -101.957031 36.15625 -104.84375 C 37.40625 -107.726562 37.632812 -110.472656 36.84375 -113.078125 C 36.050781 -115.679688 34.632812 -117.4375 32.59375 -118.34375 C 31.351562 -118.90625 29.882812 -119.015625 28.1875 -118.671875 C 27.957031 -118.335938 27.617188 -118.113281 27.171875 -118 Z M 4.75 -67.578125 L 4.75 -71.640625 L 13.75 -71.640625 L 13.75 -83.703125 L 4.75 -83.703125 L 4.75 -87.78125 L 37.015625 -87.609375 L 37.015625 -83.53125 L 36.328125 -83.53125 L 36.5 -71.640625 L 37.015625 -71.640625 L 37.015625 -67.578125 L 36.5 -67.578125 L 37.359375 -2.03125 L 33.28125 -2.03125 L 32.421875 -67.578125 L 18 -67.578125 L 18.34375 -1.1875 L 14.265625 -1.1875 L 13.921875 -67.578125 Z M 4.75 -67.578125 "/></g></g></g><g fill="#1f354d" fill-opacity="1"><g transform="translate(234.739814, 176.153107)"><g><path d="M 24.109375 -36.84375 L 8.15625 -36.84375 C 9.164062 -28.800781 12.078125 -21.640625 16.890625 -15.359375 C 21.703125 -9.078125 28.015625 -4.691406 35.828125 -2.203125 C 47.828125 1.640625 61.972656 -0.90625 78.265625 -9.84375 C 79.515625 -10.414062 80.445312 -10.101562 81.0625 -8.90625 C 81.6875 -7.71875 81.4375 -6.785156 80.3125 -6.109375 C 63.101562 3.285156 47.820312 5.832031 34.46875 1.53125 C 26.207031 -1.070312 19.472656 -5.710938 14.265625 -12.390625 C 8.941406 -19.066406 5.597656 -26.335938 4.234375 -34.203125 C 2.878906 -42.078125 3.390625 -50.144531 5.765625 -58.40625 C 8.253906 -66.664062 12.554688 -73.738281 18.671875 -79.625 C 21.503906 -82.34375 26.203125 -84.609375 32.765625 -86.421875 C 33.109375 -86.535156 34.015625 -86.816406 35.484375 -87.265625 L 38.703125 -87.953125 C 39.273438 -88.171875 40.238281 -88.421875 41.59375 -88.703125 C 42.957031 -88.992188 44.0625 -89.191406 44.90625 -89.296875 C 45.757812 -89.410156 46.78125 -89.523438 47.96875 -89.640625 C 49.15625 -89.753906 50.3125 -89.78125 51.4375 -89.71875 C 52.570312 -89.664062 53.648438 -89.582031 54.671875 -89.46875 C 67.347656 -87.320312 77.082031 -81.320312 83.875 -71.46875 C 90.664062 -61.625 92.191406 -50.535156 88.453125 -38.203125 L 88.453125 -36.84375 L 87.609375 -36.84375 C 87.046875 -36.5 86.421875 -36.441406 85.734375 -36.671875 C 85.617188 -36.671875 85.453125 -36.726562 85.234375 -36.84375 L 28.1875 -36.84375 C 29.425781 -31.632812 31.910156 -27.273438 35.640625 -23.765625 C 39.378906 -20.253906 44.140625 -18.160156 49.921875 -17.484375 C 55.578125 -16.804688 59.875 -17.09375 62.8125 -18.34375 C 63.5 -18.5625 64.296875 -19.066406 65.203125 -19.859375 C 66.441406 -20.878906 67.398438 -21.617188 68.078125 -22.078125 C 69.328125 -22.640625 70.257812 -22.328125 70.875 -21.140625 C 71.5 -19.953125 71.25 -19.019531 70.125 -18.34375 C 69.664062 -18.113281 68.875 -17.546875 67.75 -16.640625 C 66.5 -15.617188 65.421875 -14.9375 64.515625 -14.59375 C 60.890625 -13.125 55.910156 -12.726562 49.578125 -13.40625 C 42.554688 -14.195312 36.835938 -16.742188 32.421875 -21.046875 C 28.015625 -25.347656 25.242188 -30.613281 24.109375 -36.84375 Z M 70.453125 -50.765625 C 70.234375 -48.609375 69.554688 -45.328125 68.421875 -40.921875 L 85.0625 -40.921875 C 85.851562 -44.203125 86.25 -47.484375 86.25 -50.765625 Z M 28.515625 -50.59375 C 27.722656 -47.425781 27.441406 -44.203125 27.671875 -40.921875 L 64.171875 -40.921875 C 65.421875 -45.898438 66.160156 -49.179688 66.390625 -50.765625 Z M 24.453125 -50.59375 L 8.15625 -50.59375 C 7.695312 -47.425781 7.523438 -44.203125 7.640625 -40.921875 L 23.59375 -40.921875 C 23.375 -44.203125 23.660156 -47.425781 24.453125 -50.59375 Z M 29.875 -54.671875 L 66.546875 -54.84375 C 66.441406 -55.96875 66.273438 -57.039062 66.046875 -58.0625 C 65.140625 -60.894531 63.300781 -63.128906 60.53125 -64.765625 C 57.757812 -66.410156 54.5625 -67.40625 50.9375 -67.75 C 47.195312 -68.082031 43.742188 -67.65625 40.578125 -66.46875 C 37.410156 -65.28125 35.035156 -63.554688 33.453125 -61.296875 C 31.972656 -59.253906 30.78125 -57.046875 29.875 -54.671875 Z M 70.625 -54.84375 L 85.90625 -54.84375 C 84.882812 -62.644531 81.457031 -69.316406 75.625 -74.859375 C 69.800781 -80.410156 62.585938 -83.925781 53.984375 -85.40625 C 53.078125 -85.625 52.171875 -85.734375 51.265625 -85.734375 C 50.367188 -85.734375 49.378906 -85.675781 48.296875 -85.5625 C 47.222656 -85.457031 46.316406 -85.375 45.578125 -85.3125 C 44.847656 -85.257812 43.832031 -85.0625 42.53125 -84.71875 C 41.226562 -84.382812 40.320312 -84.160156 39.8125 -84.046875 C 39.300781 -83.929688 38.253906 -83.644531 36.671875 -83.1875 C 35.085938 -82.738281 34.125 -82.457031 33.78125 -82.34375 C 27.894531 -80.757812 23.765625 -78.835938 21.390625 -76.578125 C 15.160156 -70.691406 11.03125 -63.390625 9 -54.671875 L 25.46875 -54.671875 C 26.601562 -57.835938 28.128906 -60.835938 30.046875 -63.671875 C 32.203125 -66.609375 35.203125 -68.785156 39.046875 -70.203125 C 42.898438 -71.617188 46.972656 -72.15625 51.265625 -71.8125 C 55.566406 -71.476562 59.441406 -70.265625 62.890625 -68.171875 C 66.347656 -66.078125 68.644531 -63.160156 69.78125 -59.421875 C 70.226562 -57.953125 70.507812 -56.425781 70.625 -54.84375 Z M 70.625 -54.84375 "/></g></g></g><g fill="#1f354d" fill-opacity="1"><g transform="translate(328.624182, 176.153107)"><g><path d="M 32.265625 -73.6875 L 32.421875 -84.546875 L 18.84375 -84.71875 L 18.84375 -74.03125 Z M 54.5 -73.171875 L 54.5 -69.09375 L 36.328125 -69.609375 L 35.65625 -0.34375 L 31.578125 -0.34375 L 32.265625 -69.609375 L 19.015625 -69.953125 L 19.359375 -1.015625 L 15.28125 -1.015625 L 14.9375 -70.125 L 4.421875 -70.296875 L 4.421875 -74.359375 L 14.765625 -74.1875 L 14.765625 -84.71875 L 3.5625 -84.71875 L 3.5625 -88.796875 L 15.109375 -88.796875 C 15.335938 -99.773438 18.789062 -108.6875 25.46875 -115.53125 C 32.144531 -122.382812 40.914062 -125.242188 51.78125 -124.109375 C 58.226562 -123.429688 62.753906 -122.242188 65.359375 -120.546875 C 66.609375 -119.867188 66.863281 -118.929688 66.125 -117.734375 C 65.394531 -116.546875 64.460938 -116.351562 63.328125 -117.15625 C 61.179688 -118.507812 57.21875 -119.46875 51.4375 -120.03125 C 41.820312 -121.050781 34.070312 -118.617188 28.1875 -112.734375 C 22.414062 -106.734375 19.414062 -98.753906 19.1875 -88.796875 L 32.59375 -88.625 C 33.050781 -96.882812 35.710938 -102.316406 40.578125 -104.921875 C 44.992188 -107.296875 51.503906 -107.410156 60.109375 -105.265625 C 61.460938 -104.921875 61.96875 -104.070312 61.625 -102.71875 C 61.289062 -101.363281 60.441406 -100.851562 59.078125 -101.1875 C 51.492188 -103.113281 45.945312 -103.171875 42.4375 -101.359375 C 38.9375 -99.429688 37.015625 -95.1875 36.671875 -88.625 L 53.484375 -88.625 L 53.484375 -84.546875 L 36.5 -84.546875 L 36.328125 -73.6875 Z M 54.5 -73.171875 "/></g></g></g><g fill="#cb6ce6" fill-opacity="1"><g transform="translate(398.581138, 176.153107)"><g><path d="M 11.890625 -117.65625 L 15.953125 -117.65625 L 16.8125 0.515625 L 12.734375 0.515625 Z M 32.09375 -123.09375 L 36.15625 -123.09375 L 36 -1.1875 L 31.921875 -1.1875 Z M 32.09375 -123.09375 "/></g></g></g><g fill="#1f354d" fill-opacity="1"><g transform="translate(438.314044, 176.153107)"><g><path d="M 45.328125 -70.453125 C 42.835938 -70.234375 40.179688 -69.046875 37.359375 -66.890625 C 32.941406 -63.609375 29.992188 -59.929688 28.515625 -55.859375 C 26.253906 -49.515625 26.203125 -42.550781 28.359375 -34.96875 C 30.734375 -26.9375 34.75 -21.789062 40.40625 -19.53125 C 46.175781 -17.257812 51.328125 -17.765625 55.859375 -21.046875 C 59.929688 -24.222656 62.875 -29.09375 64.6875 -35.65625 C 66.5 -41.875 66.664062 -48.125 65.1875 -54.40625 C 63.71875 -60.695312 60.832031 -64.972656 56.53125 -67.234375 C 55.289062 -68.023438 53.3125 -68.703125 50.59375 -69.265625 Z M 51.28125 -73.34375 L 51.4375 -73.34375 C 54.382812 -72.664062 56.765625 -71.875 58.578125 -70.96875 C 62.191406 -68.925781 65.019531 -65.8125 67.0625 -61.625 C 69.101562 -57.4375 70.125 -53.050781 70.125 -48.46875 C 70.125 -43.882812 69.613281 -39.21875 68.59375 -34.46875 C 66.550781 -27 63.097656 -21.453125 58.234375 -17.828125 C 52.578125 -13.523438 46.179688 -12.847656 39.046875 -15.796875 C 32.023438 -18.503906 27.160156 -24.5 24.453125 -33.78125 C 22.078125 -42.269531 22.1875 -50.082031 24.78125 -57.21875 C 26.476562 -62.082031 29.875 -66.382812 34.96875 -70.125 C 37.457031 -72.039062 39.945312 -73.34375 42.4375 -74.03125 C 43.007812 -74.820312 43.804688 -75.046875 44.828125 -74.703125 C 45.046875 -74.703125 45.328125 -74.644531 45.671875 -74.53125 C 47.484375 -74.644531 49.238281 -74.304688 50.9375 -73.515625 C 51.050781 -73.398438 51.164062 -73.34375 51.28125 -73.34375 Z M 46.1875 -88.453125 C 40.519531 -88.003906 34.601562 -86.082031 28.4375 -82.6875 C 22.269531 -79.289062 17.769531 -75.441406 14.9375 -71.140625 C 12 -66.492188 10.078125 -58.285156 9.171875 -46.515625 C 7.359375 -24.109375 13.863281 -10.414062 28.6875 -5.4375 C 29.707031 -5.09375 31.125 -4.523438 32.9375 -3.734375 C 34.863281 -3.054688 36.476562 -2.546875 37.78125 -2.203125 C 39.082031 -1.867188 40.46875 -1.644531 41.9375 -1.53125 C 51.332031 -0.957031 58.347656 -1.691406 62.984375 -3.734375 C 73.398438 -8.378906 80.363281 -18.113281 83.875 -32.9375 C 87.269531 -47.3125 85.6875 -59.421875 79.125 -69.265625 C 72.550781 -79.234375 61.96875 -85.40625 47.375 -87.78125 C 46.914062 -87.894531 46.519531 -88.117188 46.1875 -88.453125 Z M 50.078125 -91.515625 C 65.140625 -88.566406 76.09375 -81.6875 82.9375 -70.875 C 89.78125 -60.070312 91.453125 -47.085938 87.953125 -31.921875 C 84.097656 -15.847656 76.34375 -5.207031 64.6875 0 C 59.363281 2.257812 51.664062 3.109375 41.59375 2.546875 C 40.007812 2.429688 38.425781 2.144531 36.84375 1.6875 C 35.257812 1.238281 33.445312 0.617188 31.40625 -0.171875 C 29.375 -0.960938 28.015625 -1.472656 27.328125 -1.703125 C 10.578125 -7.242188 3.164062 -22.296875 5.09375 -46.859375 C 6.113281 -59.304688 8.265625 -68.078125 11.546875 -73.171875 C 14.941406 -78.492188 20.257812 -83.078125 27.5 -86.921875 C 34.863281 -90.660156 41.769531 -92.53125 48.21875 -92.53125 C 49.007812 -92.53125 49.628906 -92.191406 50.078125 -91.515625 Z M 50.078125 -91.515625 "/></g></g></g><g fill="#cb6ce6" fill-opacity="1"><g transform="translate(531.359468, 176.153107)"><g><path d="M 45.328125 -70.453125 C 42.835938 -70.234375 40.179688 -69.046875 37.359375 -66.890625 C 32.941406 -63.609375 29.992188 -59.929688 28.515625 -55.859375 C 26.253906 -49.515625 26.203125 -42.550781 28.359375 -34.96875 C 30.734375 -26.9375 34.75 -21.789062 40.40625 -19.53125 C 46.175781 -17.257812 51.328125 -17.765625 55.859375 -21.046875 C 59.929688 -24.222656 62.875 -29.09375 64.6875 -35.65625 C 66.5 -41.875 66.664062 -48.125 65.1875 -54.40625 C 63.71875 -60.695312 60.832031 -64.972656 56.53125 -67.234375 C 55.289062 -68.023438 53.3125 -68.703125 50.59375 -69.265625 Z M 51.28125 -73.34375 L 51.4375 -73.34375 C 54.382812 -72.664062 56.765625 -71.875 58.578125 -70.96875 C 62.191406 -68.925781 65.019531 -65.8125 67.0625 -61.625 C 69.101562 -57.4375 70.125 -53.050781 70.125 -48.46875 C 70.125 -43.882812 69.613281 -39.21875 68.59375 -34.46875 C 66.550781 -27 63.097656 -21.453125 58.234375 -17.828125 C 52.578125 -13.523438 46.179688 -12.847656 39.046875 -15.796875 C 32.023438 -18.503906 27.160156 -24.5 24.453125 -33.78125 C 22.078125 -42.269531 22.1875 -50.082031 24.78125 -57.21875 C 26.476562 -62.082031 29.875 -66.382812 34.96875 -70.125 C 37.457031 -72.039062 39.945312 -73.34375 42.4375 -74.03125 C 43.007812 -74.820312 43.804688 -75.046875 44.828125 -74.703125 C 45.046875 -74.703125 45.328125 -74.644531 45.671875 -74.53125 C 47.484375 -74.644531 49.238281 -74.304688 50.9375 -73.515625 C 51.050781 -73.398438 51.164062 -73.34375 51.28125 -73.34375 Z M 46.1875 -88.453125 C 40.519531 -88.003906 34.601562 -86.082031 28.4375 -82.6875 C 22.269531 -79.289062 17.769531 -75.441406 14.9375 -71.140625 C 12 -66.492188 10.078125 -58.285156 9.171875 -46.515625 C 7.359375 -24.109375 13.863281 -10.414062 28.6875 -5.4375 C 29.707031 -5.09375 31.125 -4.523438 32.9375 -3.734375 C 34.863281 -3.054688 36.476562 -2.546875 37.78125 -2.203125 C 39.082031 -1.867188 40.46875 -1.644531 41.9375 -1.53125 C 51.332031 -0.957031 58.347656 -1.691406 62.984375 -3.734375 C 73.398438 -8.378906 80.363281 -18.113281 83.875 -32.9375 C 87.269531 -47.3125 85.6875 -59.421875 79.125 -69.265625 C 72.550781 -79.234375 61.96875 -85.40625 47.375 -87.78125 C 46.914062 -87.894531 46.519531 -88.117188 46.1875 -88.453125 Z M 50.078125 -91.515625 C 65.140625 -88.566406 76.09375 -81.6875 82.9375 -70.875 C 89.78125 -60.070312 91.453125 -47.085938 87.953125 -31.921875 C 84.097656 -15.847656 76.34375 -5.207031 64.6875 0 C 59.363281 2.257812 51.664062 3.109375 41.59375 2.546875 C 40.007812 2.429688 38.425781 2.144531 36.84375 1.6875 C 35.257812 1.238281 33.445312 0.617188 31.40625 -0.171875 C 29.375 -0.960938 28.015625 -1.472656 27.328125 -1.703125 C 10.578125 -7.242188 3.164062 -22.296875 5.09375 -46.859375 C 6.113281 -59.304688 8.265625 -68.078125 11.546875 -73.171875 C 14.941406 -78.492188 20.257812 -83.078125 27.5 -86.921875 C 34.863281 -90.660156 41.769531 -92.53125 48.21875 -92.53125 C 49.007812 -92.53125 49.628906 -92.191406 50.078125 -91.515625 Z M 50.078125 -91.515625 "/></g></g></g><g fill="#1f354d" fill-opacity="1"><g transform="translate(624.404884, 176.153107)"><g><path d="M 31.0625 -64.171875 L 31.0625 -22.40625 C 33.664062 -20.9375 36.210938 -19.921875 38.703125 -19.359375 C 42.785156 -18.335938 47.03125 -18.445312 51.4375 -19.6875 C 55.851562 -20.9375 59.421875 -23.085938 62.140625 -26.140625 C 62.816406 -26.929688 63.378906 -27.78125 63.828125 -28.6875 C 64.285156 -29.59375 64.628906 -30.664062 64.859375 -31.90625 C 65.085938 -33.15625 65.253906 -34.203125 65.359375 -35.046875 C 65.472656 -35.898438 65.585938 -37.175781 65.703125 -38.875 C 65.816406 -40.570312 65.929688 -41.757812 66.046875 -42.4375 C 67.398438 -56.476562 64.398438 -64.859375 57.046875 -67.578125 C 51.160156 -69.722656 42.5 -68.585938 31.0625 -64.171875 Z M 31.0625 -17.828125 L 31.0625 -5.09375 L 38.703125 -3.21875 C 53.304688 0.625 65.191406 -1.242188 74.359375 -8.828125 C 82.515625 -15.390625 87.382812 -24.898438 88.96875 -37.359375 C 89.875 -45.160156 89.28125 -52.597656 87.1875 -59.671875 C 85.09375 -66.753906 81.410156 -72.640625 76.140625 -77.328125 C 70.878906 -82.023438 64.515625 -84.488281 57.046875 -84.71875 C 51.953125 -84.832031 47.707031 -84.519531 44.3125 -83.78125 C 40.914062 -83.050781 37.179688 -81.550781 33.109375 -79.28125 C 32.429688 -78.832031 31.75 -78.4375 31.0625 -78.09375 L 31.0625 -68.421875 C 42.726562 -72.835938 51.898438 -73.800781 58.578125 -71.3125 C 67.859375 -67.914062 71.707031 -58.179688 70.125 -42.109375 C 70.125 -41.648438 70.066406 -40.539062 69.953125 -38.78125 C 69.835938 -37.03125 69.691406 -35.644531 69.515625 -34.625 C 69.347656 -33.613281 69.125 -32.367188 68.84375 -30.890625 C 68.5625 -29.421875 68.109375 -28.0625 67.484375 -26.8125 C 66.859375 -25.570312 66.097656 -24.445312 65.203125 -23.4375 C 61.910156 -19.8125 57.691406 -17.257812 52.546875 -15.78125 C 47.398438 -14.3125 42.445312 -14.144531 37.6875 -15.28125 C 35.539062 -15.84375 33.332031 -16.691406 31.0625 -17.828125 Z M 27 -62.484375 C 20.09375 -59.421875 14.710938 -56.082031 10.859375 -52.46875 L 10.859375 -35.140625 C 13.242188 -34.015625 17.773438 -31.128906 24.453125 -26.484375 L 27 -24.78125 Z M 27 -66.890625 L 27 -76.234375 L 21.046875 -73.859375 C 16.640625 -72.046875 13.191406 -69.894531 10.703125 -67.40625 L 10.859375 -57.71875 C 15.160156 -61.113281 20.425781 -64.113281 26.65625 -66.71875 Z M 27 -86.25 L 31.0625 -86.25 L 31.0625 -82.6875 C 35.476562 -85.289062 39.550781 -86.988281 43.28125 -87.78125 C 47.019531 -88.570312 51.609375 -88.910156 57.046875 -88.796875 C 63.609375 -88.679688 69.40625 -87.007812 74.4375 -83.78125 C 79.476562 -80.5625 83.414062 -76.457031 86.25 -71.46875 C 89.082031 -66.488281 91.09375 -61 92.28125 -55 C 93.46875 -49.007812 93.664062 -42.957031 92.875 -36.84375 C 91.289062 -23.375 86.023438 -12.960938 77.078125 -5.609375 C 66.660156 2.773438 53.53125 4.925781 37.6875 0.84375 C 36.332031 0.394531 34.125 -0.164062 31.0625 -0.84375 L 31.0625 32.59375 L 27 32.59375 L 27 -1.875 C 25.1875 -2.320312 23.65625 -2.828125 22.40625 -3.390625 C 19.007812 -4.753906 15.21875 -7.300781 11.03125 -11.03125 L 11.203125 34.125 L 7.125 34.125 L 6.796875 -52.46875 C 6.566406 -52.914062 6.566406 -53.367188 6.796875 -53.828125 L 6.625 -86.078125 L 10.703125 -86.078125 L 10.703125 -72.84375 C 12.960938 -74.539062 15.847656 -76.125 19.359375 -77.59375 L 23.09375 -79.125 C 24.789062 -79.800781 26.09375 -80.363281 27 -80.8125 Z M 11.546875 -15.953125 C 16.523438 -11.429688 20.65625 -8.488281 23.9375 -7.125 C 24.84375 -6.789062 25.863281 -6.453125 27 -6.109375 L 27 -20.03125 C 25.632812 -20.820312 24.046875 -21.898438 22.234375 -23.265625 C 16.347656 -27.335938 12.554688 -29.769531 10.859375 -30.5625 L 11.03125 -16.296875 C 11.257812 -16.179688 11.429688 -16.066406 11.546875 -15.953125 Z M 11.546875 -15.953125 "/></g></g></g></svg>